<svg xmlns="http://www.w3.org/2000/svg" width="108" height="21" viewBox="0 0 108 21" fill="none">
<path d="M8.51363 14.9441C10.2429 17.5989 13.4143 19.3801 16.9439 19.3801C22.1592 19.3801 25.0301 15.1659 25.0301 15.1659L25.3996 16.2884C22.9851 19.2287 18.6718 21 13.846 21C8.29 21 3.49833 18.5182 1.29354 14.9393C0.463401 13.5913 0 12.0856 0 10.4998C0 4.70076 6.19842 0 13.8458 0C19.2492 0 23.5996 2.16711 25.8833 5.30767L16.817 10.3912L21.9911 2.95188C20.5108 2.08014 18.6947 1.26384 16.817 1.26384C11.5089 1.26384 7.13698 5.41143 7.13698 10.3815C7.13698 12.0468 7.64204 13.6114 8.51363 14.9441ZM32.7895 14.9412C32.7623 15.1107 32.7487 15.282 32.7488 15.4535C32.7488 17.3401 34.3824 18.8698 36.3974 18.8698C38.4125 18.8698 40.0458 17.3402 40.0458 15.4535C40.0459 15.2814 40.0323 15.1095 40.005 14.9393C39.7411 13.2975 38.2265 12.0372 36.3972 12.0372C34.5681 12.0372 33.0534 13.2975 32.7895 14.9412ZM46.3278 14.9393L48.1411 20.6587H41.7803L40.5296 16.7423C39.6921 18.999 36.8656 20.6587 33.508 20.6587C29.4907 20.6587 26.2343 18.2829 26.2343 15.3517C26.2343 15.2146 26.2415 15.0783 26.2554 14.9393C26.5412 12.2035 29.679 10.0448 33.508 10.0448C35.6813 10.0448 37.632 10.7402 38.9648 11.8426L37.2322 6.41847H29.9317C29.9317 6.41847 31.1464 5.73635 36.5328 3.90125C41.9192 2.06633 43.6261 6.41847 43.6261 6.41847L46.3278 14.9393ZM66.665 14.9393V20.6587H60.12V8.0927C60.12 7.64867 59.9316 7.22282 59.5963 6.90884C59.261 6.59486 58.8062 6.41847 58.332 6.41847C57.9718 6.41839 57.62 6.52015 57.3227 6.71043C57.0253 6.90071 56.7963 7.17063 56.6655 7.48486V20.6587H50.2419V6.41847H46.4956C46.4956 6.41847 51.7072 3.46212 53.5144 3.46212C55.2271 3.46212 56.4947 4.69423 56.6532 6.26376C59.1737 4.99078 61.673 3.46212 63.3927 3.46212C65.1694 3.46212 66.6156 4.78791 66.665 6.44087V14.9393ZM76.7476 14.9393L77.6585 17.7583C77.676 18.9665 78.7364 19.9331 80.0379 19.9331C81.3685 19.9331 82.4468 18.9234 82.4468 17.6777C82.4468 17.5894 82.4414 17.5026 82.4308 17.4171L81.6565 14.9393L78.9373 6.23744C78.8033 5.10984 77.7827 4.23326 76.5427 4.23326C75.3154 4.23326 74.1452 5.30711 73.9957 6.41828L76.7476 14.9393ZM87.1637 14.9404C85.9242 18.4596 82.3842 21 78.2102 21C74.036 21 70.4958 18.4598 69.2559 14.9393C68.942 14.047 68.7826 13.1135 68.7837 12.174C68.7837 7.29954 73.0039 3.34827 78.2102 3.34827C83.416 3.34827 87.6363 7.29954 87.6363 12.174C87.6363 13.1402 87.4704 14.0704 87.1637 14.9404ZM98.0005 14.9393V20.6587H91.5767V6.41847H87.9845C87.9845 6.41847 93.042 3.46212 94.8494 3.46212C96.5623 3.46212 97.8297 4.69423 97.9886 6.26376C100.509 4.99078 103.008 3.46212 104.728 3.46212C106.505 3.46212 107.951 4.78791 108 6.44087V20.6587H101.455V8.0927C101.455 7.64867 101.267 7.22282 100.931 6.90884C100.596 6.59486 100.141 6.41847 99.6669 6.41847C99.3068 6.41839 98.955 6.52015 98.6577 6.71043C98.3603 6.90071 98.1313 7.17063 98.0005 7.48486V14.9393Z" fill="#CC2229"/>
</svg>