
<svg xmlns="http://www.w3.org/2000/svg" width="48" height="29" viewBox="0 0 48 29" fill="none">
<path fill-rule="evenodd" clip-rule="evenodd" d="M25.271 28.9471C22.4665 29.0176 19.6608 29.0176 16.8563 28.9471C14.7401 28.873 13.2436 27.2428 13.3334 25.0504L13.3352 16.9172H8.84225V28.9471H0V3.50632C0 1.35734 1.46053 0 3.49414 0H37.8248L48 8.60497H8.84045V11.8131H18.9151V22.9556C18.9151 23.5539 19.5043 24.2172 20.0936 24.2533C20.7575 24.2985 21.4237 24.2985 22.0877 24.2533C22.6751 24.1991 23.2643 23.5557 23.2643 22.9574V11.8149H28.846L28.8442 25.0558C28.9448 27.3187 27.3262 28.8766 25.271 28.9471Z" fill="#CF432A"/>
</svg>